<svg version="1.1" xmlns="http://www.w3.org/2000/svg" width="225" height="224">

<path d="M0 0 C12.37199611 9.39950354 22.82961846 20.53966933 30.34375 34.140625 C30.66956055 34.72875977 30.99537109 35.31689453 31.33105469 35.92285156 C35.56451083 43.6976341 38.9226098 51.61772237 41.34375 60.140625 C41.66472656 61.25630859 41.66472656 61.25630859 41.9921875 62.39453125 C43.71937492 69.19063826 43.96656284 76.16266259 44.34375 83.140625 C40.32065572 82.59838186 37.10298714 81.74702161 33.46875 79.953125 C28.84271013 77.78171853 24.18023888 75.83081485 19.40625 74.015625 C18.38277466 73.61887573 18.38277466 73.61887573 17.33862305 73.21411133 C13.1435669 71.64052803 9.23399742 70.77673177 4.78125 70.140625 C0.74849162 69.24142887 -0.34185367 68.60321959 -2.703125 65.12890625 C-3.94497821 62.68456021 -5.02594639 60.18290184 -6.09765625 57.66015625 C-10.40102607 47.94252163 -18.05354681 43.13562929 -27.71875 39.328125 C-37.76530379 36.31415886 -48.82819865 37.53568341 -58.03125 42.39453125 C-64.26619227 46.25977418 -70.27306121 51.26292678 -72.7890625 58.31640625 C-74.65625 61.140625 -74.65625 61.140625 -76.46044922 61.75927734 C-78.86643509 62.08724473 -81.22985037 62.23256866 -83.65625 62.328125 C-85.47688874 62.45503898 -87.29720435 62.58666387 -89.1171875 62.72265625 C-90.04241211 62.78662598 -90.96763672 62.8505957 -91.92089844 62.91650391 C-99.2265453 63.51509225 -106.44799915 64.84205122 -113.65625 66.140625 C-114.3476709 66.26099121 -115.0390918 66.38135742 -115.75146484 66.50537109 C-126.51103079 68.43288004 -136.80722324 71.68392392 -147.15625 75.140625 C-147.80091217 75.35590851 -148.44557434 75.57119202 -149.10977173 75.79299927 C-156.0650415 78.12775387 -162.9382045 80.55539167 -169.68554688 83.44140625 C-171.65625 84.140625 -171.65625 84.140625 -174.65625 84.140625 C-175.13247816 60.22338847 -164.6596355 34.75312604 -148.65625 17.140625 C-147.99625 17.140625 -147.33625 17.140625 -146.65625 17.140625 C-146.40875 16.58375 -146.16125 16.026875 -145.90625 15.453125 C-142.55158331 9.24699163 -137.45576812 5.02563038 -131.65625 1.140625 C-130.99625 1.140625 -130.33625 1.140625 -129.65625 1.140625 C-129.65625 0.480625 -129.65625 -0.179375 -129.65625 -0.859375 C-127.4972163 -2.39060457 -125.36665292 -3.76485265 -123.09375 -5.109375 C-122.41699219 -5.51051514 -121.74023438 -5.91165527 -121.04296875 -6.32495117 C-82.44586068 -28.61210073 -36.04487816 -25.23141471 0 0 Z " fill="#ED4035" transform="translate(177.65625,23.859375)" data-index="1" style="opacity: 1;"></path>
<path d="M0 0 C2.61398572 -0.27117879 4.51733649 -0.30566971 7.046875 0.44921875 C8.96384859 2.7213561 10.16270029 5.0549706 11.5 7.70703125 C15.68419361 15.12446537 23.0742312 19.874113 31.046875 22.44921875 C42.1278983 25.09436625 53.88387875 23.81896388 63.69140625 17.8359375 C68.12261916 14.52171358 71.71589749 10.85470513 75.046875 6.44921875 C82.84785096 7.70852189 90.35017384 9.51204047 97.921875 11.76171875 C98.96601563 12.06859619 100.01015625 12.37547363 101.0859375 12.69165039 C108.5635929 14.92320504 115.85692961 17.40191768 123.046875 20.44921875 C122.51072728 26.11976932 121.42693193 30.96503401 119.359375 36.26171875 C119.0910083 36.95386475 118.8226416 37.64601074 118.54614258 38.35913086 C114.39751787 48.81861291 110.52177134 56.08014191 101.046875 62.44921875 C99.64308594 63.51076172 99.64308594 63.51076172 98.2109375 64.59375 C75.59493506 81.31364098 48.764093 86.61979242 21.05566406 82.68017578 C0.81130571 79.2011241 -16.64405885 68.94384916 -30.953125 54.44921875 C-32.17128906 53.22912109 -32.17128906 53.22912109 -33.4140625 51.984375 C-44.28538801 40.53794524 -53.44209535 25.37581859 -54.953125 9.44921875 C-38.4698482 5.22402217 -22.10523603 2.28555361 -5.16479492 0.67626953 C-3.4375789 0.49895295 -1.71654749 0.26111503 0 0 Z " fill="#FDFDFD" transform="translate(95.953125,113.55078125)" data-index="2" style="opacity: 1;"></path>
<path d="M0 0 C7.11842412 5.08630642 12.79614426 12.16145634 15.5625 20.52734375 C15.5625 21.84734375 15.5625 23.16734375 15.5625 24.52734375 C17.480625 24.83671875 17.480625 24.83671875 19.4375 25.15234375 C35.18177755 28.35419543 49.95946079 35.02697215 64.5625 41.52734375 C64.76733028 49.52710419 64.69730153 56.78868821 62.5625 64.52734375 C61.4075 64.13546875 60.2525 63.74359375 59.0625 63.33984375 C52.54408693 61.16703939 45.98179072 59.13601472 39.41748047 57.10742188 C37.82732324 56.61015765 36.24308037 56.09404848 34.66015625 55.57421875 C29.65124069 53.95997108 24.94801093 53.09265909 19.69140625 52.73828125 C17.5625 52.52734375 17.5625 52.52734375 14.5625 51.52734375 C14.8925 50.86734375 15.2225 50.20734375 15.5625 49.52734375 C13.9125 49.52734375 12.2625 49.52734375 10.5625 49.52734375 C10.31628906 50.26855469 10.07007813 51.00976562 9.81640625 51.7734375 C6.65562263 58.71534546 -0.55112055 63.15338397 -7.45703125 65.8515625 C-18.32085312 69.55854708 -29.66714863 67.59874501 -39.80859375 62.72265625 C-41.81295468 61.25183025 -42.40289051 59.75469082 -43.4375 57.52734375 C-44.05625 57.21796875 -44.675 56.90859375 -45.3125 56.58984375 C-49.68320171 54.4044929 -52.1715784 49.71929871 -54.4375 45.52734375 C-54.4375 44.86734375 -54.4375 44.20734375 -54.4375 43.52734375 C-55.30790421 43.76865776 -55.30790421 43.76865776 -56.19589233 44.0148468 C-58.97786724 44.65088748 -61.71489728 44.70785598 -64.55917358 44.80183411 C-74.69918532 45.14150715 -84.44016606 46.45250792 -94.39208984 48.3737793 C-96.83039692 48.84328991 -99.27200754 49.29104734 -101.71484375 49.73632812 C-109.95646401 51.2694911 -117.9042402 53.06999224 -125.86401367 55.7331543 C-129.25228499 56.77879006 -131.9302586 57.09995459 -135.4375 56.52734375 C-140.91344547 53.62831379 -145.23221598 49.40810114 -147.4375 43.52734375 C-147.46725716 41.86094275 -147.47038833 40.19368589 -147.4375 38.52734375 C-145.45937996 37.7538285 -143.47994071 36.98368671 -141.5 36.21484375 C-140.39785156 35.78558594 -139.29570312 35.35632813 -138.16015625 34.9140625 C-120.54007374 28.3504431 -102.0201972 23.41354523 -83.4375 20.52734375 C-82.34308594 20.34945312 -81.24867187 20.1715625 -80.12109375 19.98828125 C-74.79699659 19.32206337 -69.47137952 19.14140255 -64.11328125 18.921875 C-63.29730469 18.88449219 -62.48132813 18.84710938 -61.640625 18.80859375 C-60.53702637 18.7631543 -60.53702637 18.7631543 -59.41113281 18.71679688 C-57.22635848 18.5814807 -57.22635848 18.5814807 -54.4375 17.52734375 C-53.37853763 15.8654088 -53.37853763 15.8654088 -52.5625 13.83984375 C-48.01777537 4.32644629 -40.83209925 -0.53989908 -31.125 -4.34765625 C-20.29350882 -7.53788381 -9.55508474 -5.7728637 0 0 Z " fill="#575758" transform="translate(158.4375,68.47265625)" data-index="3" style="opacity: 1;"></path>
<path d="M0 0 C1.83853854 3.40129629 3.02274193 6.9011801 4.25 10.5625 C13.45269735 36.86471153 32.90122099 54.61380905 57.41015625 66.49609375 C81.91530826 76.76212588 109.93570537 75.34242538 134.23828125 65.59765625 C142.67011333 62.08527717 149.74592391 57.67683847 156.76171875 51.8359375 C159.39925216 49.67251568 162.11873233 47.819748 165 46 C154.8245017 67.87732135 132.01259254 83.18780889 110.078125 91.53125 C97.82105112 95.91886487 86.00564971 97.33518985 73 97.25 C71.81921875 97.25773437 70.6384375 97.26546875 69.421875 97.2734375 C38.26286022 97.20480531 12.66980093 83.59599304 -9.08203125 61.92578125 C-20.09691036 50.17223175 -33.17455752 30.48222713 -34.1875 13.9375 C-34.0946875 12.9784375 -34.0946875 12.9784375 -34 12 C-27.5300208 8.96436968 -20.97920599 6.52498619 -14.1875 4.3125 C-13.26001953 4.00505859 -12.33253906 3.69761719 -11.37695312 3.38085938 C-7.60415295 2.1377666 -3.86611226 0.92108177 0 0 Z " fill="#9F9E9C" transform="translate(40,123)" data-index="4" style="opacity: 1;"></path>

<path d="M0 0 C0.33 0 0.66 0 1 0 C1 32.67 1 65.34 1 99 C-33.32 99 -67.64 99 -103 99 C-103 98.67 -103 98.34 -103 98 C-102.09121094 97.90203125 -101.18242188 97.8040625 -100.24609375 97.703125 C-77.66829702 95.01694611 -57.71874391 87.41146299 -40 73 C-39.21786133 72.37037354 -39.21786133 72.37037354 -38.41992188 71.72802734 C-16.36355814 53.65367921 -4.80984559 27.56862718 0 0 Z " fill="#FDFDFD" transform="translate(224,125)" data-index="6" style="opacity: 1; visibility: hidden; fill: rgb(121, 40, 202);"></path>

<path d="M0 0 C33.33 0 66.66 0 101 0 C101 0.33 101 0.66 101 1 C99.42025391 1.23783203 99.42025391 1.23783203 97.80859375 1.48046875 C75.97277904 4.93440486 57.07500295 12.86555472 40 27 C39.14019531 27.69609375 38.28039063 28.3921875 37.39453125 29.109375 C16.24661027 47.07691096 4.56395685 73.93509993 1 101 C0.67 101 0.34 101 0 101 C0 67.67 0 34.34 0 0 Z " fill="#FEFEFE" transform="translate(0,0)" data-index="8" style="opacity: 1; visibility: hidden; fill: rgb(121, 40, 202);"></path>
<path d="M0 0 C4.54355091 3.43536776 8.51976278 7.17379865 9.5625 12.9375 C10.53538553 20.72058424 7.29242907 27.87986349 2.98828125 34.27734375 C-3.83737208 42.56677355 -13.94664565 49.15131364 -24.75 50.28515625 C-30.57729731 50.43746061 -35.61056522 50.55770109 -40.4375 46.9375 C-46.01957696 41.20248943 -46.84606703 37.27723689 -46.78515625 29.40234375 C-45.9084944 20.66527561 -40.59817964 13.40030206 -33.9921875 7.90234375 C-23.73349972 0.02972959 -12.95578172 -4.00451435 0 0 Z " fill="#FDFCFB" transform="translate(73.4375,22.0625)" data-index="9" style="opacity: 1;"></path>
<path d="M0 0 C6.17223334 3.62515048 10.48722608 8.11810154 12.62109375 15.1171875 C14.15186271 22.79991475 13.22669084 29.55049738 9.03515625 36.1953125 C5.33963214 40.906191 1.05632182 44.97826839 -4.96484375 46.1953125 C-13.20522761 47.18013886 -19.8857615 46.92620549 -26.8359375 42.1171875 C-31.76094594 37.67112483 -35.64197426 32.06445349 -36.203125 25.33984375 C-36.38777121 17.05020077 -35.91290675 11.43455585 -30.1640625 5.26171875 C-21.1841422 -3.12535244 -11.17474812 -5.63664544 0 0 Z " fill="#D3D2D2" transform="translate(150.96484375,76.8046875)" data-index="10"></path>
<path d="M0 0 C1.70736328 0.34998047 1.70736328 0.34998047 3.44921875 0.70703125 C19.92429208 4.5412938 34.91390223 12.36325818 48 23 C49.02480469 23.83015625 50.04960937 24.6603125 51.10546875 25.515625 C68.28135089 40.3584313 79.86469142 60.28254789 86 82 C86.38478516 83.29550781 86.38478516 83.29550781 86.77734375 84.6171875 C88.20885989 90.02513735 87.87554246 94.4840825 87 100 C86.34 100 85.68 100 85 100 C84.89042969 99.28457031 84.78085938 98.56914063 84.66796875 97.83203125 C84.14543059 94.5481126 83.5818684 91.27393044 83 88 C82.72542969 86.45119141 82.72542969 86.45119141 82.4453125 84.87109375 C79.72096559 71.4343457 73.91486706 59.15602303 66 48 C65.49210938 47.26910156 64.98421875 46.53820313 64.4609375 45.78515625 C46.88536051 21.84600828 20.95911377 7.44496038 -8.0612793 2.39477539 C-33.4832069 -1.02029954 -63.32684443 3.97111125 -84.27734375 19.7109375 C-86 21 -86 21 -88 21 C-88 21.66 -88 22.32 -88 23 C-89.57421875 24.3671875 -89.57421875 24.3671875 -91.6875 25.875 C-92.41839844 26.40867187 -93.14929688 26.94234375 -93.90234375 27.4921875 C-94.59457031 27.98976563 -95.28679687 28.48734375 -96 29 C-100.04360149 31.94080109 -102.27292347 34.82416406 -105 39 C-105.763125 39.7425 -106.52625 40.485 -107.3125 41.25 C-122.45597031 56.74564404 -129.45833309 78.60247671 -132.01293945 99.61425781 C-132.28164909 101.75128971 -132.6331924 103.87760456 -133 106 C-133.99 106.495 -133.99 106.495 -135 107 C-136.37234624 80.81105917 -125.92518947 56.75134681 -109 37 C-108.32324219 36.17757812 -107.64648438 35.35515625 -106.94921875 34.5078125 C-97.47442747 23.38749074 -85.81535154 15.73221058 -73 9 C-72.12214844 8.52820312 -71.24429688 8.05640625 -70.33984375 7.5703125 C-49.3514077 -2.87524609 -22.71638228 -5.04484484 0 0 Z " fill="#351212" transform="translate(136,2)" data-index="11" style="opacity: 1;"></path>
<path d="M0 0 C4.92417292 2.24611397 7.58611949 5.17223898 10 10 C11.56655885 16.02367145 11.47589739 20.81608226 8.3125 26.2421875 C5.532989 29.96474688 2.45999431 32.51333523 -2 34 C-8.29892762 34.7831704 -13.09831752 34.31873282 -18.3046875 30.53515625 C-21.97656672 27.21015963 -23.68508877 24.25358351 -24.375 19.31640625 C-24.63289714 13.37671275 -24.12051994 9.56598155 -20 5 C-13.58434042 -0.65189058 -8.41068274 -0.72735502 0 0 Z " fill="#FBFBFB" transform="translate(146,82)" data-index="12"></path>
<path d="M0 0 C4.87212837 3.56967821 8.27080854 7.33001794 11.4921875 12.421875 C10.10022835 15.2057933 8.33642971 15.40086497 5.4921875 16.421875 C4.8321875 15.431875 4.1721875 14.441875 3.4921875 13.421875 C4.4821875 12.761875 5.4721875 12.101875 6.4921875 11.421875 C5.9971875 10.431875 5.9971875 10.431875 5.4921875 9.421875 C4.8321875 9.421875 4.1721875 9.421875 3.4921875 9.421875 C2.18422718 12.2384829 2.18422718 12.2384829 3.2421875 14.171875 C3.6546875 14.914375 4.0671875 15.656875 4.4921875 16.421875 C8.08691505 22.92003635 8.02583862 29.08417208 7.4921875 36.421875 C6.9971875 37.411875 6.9971875 37.411875 6.4921875 38.421875 C5.8321875 38.421875 5.1721875 38.421875 4.4921875 38.421875 C4.52699219 37.57625 4.56179687 36.730625 4.59765625 35.859375 C4.80604653 27.12682996 4.25954281 21.53337432 -0.6953125 14.171875 C-5.70936531 9.26924558 -12.01756634 6.34121112 -19.0703125 6.046875 C-25.84444932 6.13587826 -31.38632183 8.59060557 -36.3984375 13.13671875 C-41.93492481 19.27791948 -43.04161471 24.87986625 -42.875 33.0625 C-42.19001924 39.32934527 -40.10624481 44.2266477 -35.2421875 48.3359375 C-29.76156747 52.066295 -26.04116105 53.56066191 -19.3828125 53.984375 C-18.10148437 54.06816406 -16.82015625 54.15195313 -15.5 54.23828125 C-14.01886719 54.32916016 -14.01886719 54.32916016 -12.5078125 54.421875 C-12.5078125 55.081875 -12.5078125 55.741875 -12.5078125 56.421875 C-16.71000137 58.52296944 -21.64688075 57.91680366 -26.078125 56.73828125 C-34.90422761 53.48584894 -40.1205729 48.91936312 -44.5625 40.66796875 C-47.81885988 32.93075002 -46.78311807 25.73201593 -43.86328125 18.08984375 C-41.81672181 14.06160139 -38.96825863 11.26993881 -35.5078125 8.421875 C-36.8278125 8.751875 -38.1478125 9.081875 -39.5078125 9.421875 C-38.8478125 7.441875 -38.1878125 5.461875 -37.5078125 3.421875 C-41.19536007 3.92019224 -43.11271912 4.52255143 -45.5078125 7.421875 C-45.8378125 6.431875 -46.1678125 5.441875 -46.5078125 4.421875 C-31.6517271 -5.71358514 -16.42249988 -10.33440802 0 0 Z " fill="#575557" transform="translate(158.5078125,68.578125)" data-index="13"></path>
<path d="M0 0 C0.33 0 0.66 0 1 0 C1.33 2.31 1.66 4.62 2 7 C4.97 7 7.94 7 11 7 C11.32871094 7.99580078 11.32871094 7.99580078 11.6640625 9.01171875 C14.09735583 15.78735261 16.39550635 19.69775318 23 23 C28.21046105 23.3216334 32.46698315 22.44340208 37.375 20.875 C58.95623363 14.50302007 81.51603734 11.04537631 104 11 C104.37511719 11.67546875 104.75023438 12.3509375 105.13671875 13.046875 C107.95707953 17.96296986 110.27022448 21.72554003 115 25 C116.175625 26.2684375 116.175625 26.2684375 117.375 27.5625 C124.03952844 33.75099069 132.67743535 34.34295553 141.390625 34.2109375 C149.58203033 33.54875803 156.79982739 30.3774574 163 25 C164.65742613 22.90938296 166.13208605 20.81933965 167.515625 18.5390625 C169 17 169 17 171.671875 16.7734375 C172.44015625 16.84820312 173.2084375 16.92296875 174 17 C174 17.66 174 18.32 174 19 C173.40574219 19.25136719 172.81148437 19.50273438 172.19921875 19.76171875 C169.72059191 21.15732214 168.5460309 22.57389096 166.8125 24.8125 C160.32471801 32.43219289 150.9285445 36.33008775 141.05078125 37.28515625 C130.22882102 37.60385674 121.37487424 34.94648456 113 28 C108.09972246 23.29370935 105.05062402 19.5147305 103 13 C75.26389381 15.55984822 75.26389381 15.55984822 48 21 C47.030625 21.25152832 46.06125 21.50305664 45.0625 21.76220703 C34.41733425 24.55232324 23.82706586 27.49137809 13.5 31.3125 C12.84169189 31.55468262 12.18338379 31.79686523 11.50512695 32.04638672 C8.08927082 33.22744385 8.08927082 33.22744385 6 36 C4.68 35.67 3.36 35.34 2 35 C-0.20337033 23.29459515 -0.22082273 11.86667354 0 0 Z " fill="#353435" transform="translate(0,101)" data-index="14" style="opacity: 1;"></path>
<path d="M0 0 C6.33256965 5.72888111 10.31562345 12.94687036 13 21 C15.61627099 21.86800081 18.13774824 22.5560777 20.8125 23.1875 C30.49442755 25.65751961 39.54747968 29.24297213 48.75488281 33.08300781 C52.14211486 34.46648362 55.56687817 35.73516564 59 37 C59 37.99 59 38.98 59 40 C52.26820479 38.300869 46.09688134 35.75468163 39.82714844 32.82104492 C35.61603439 30.92799771 31.47074359 29.52628938 26.99609375 28.375 C25.96315186 28.10204102 24.93020996 27.82908203 23.8659668 27.54785156 C21.82643108 27.02562303 19.77665886 26.54152207 17.71801758 26.10058594 C14.79410193 25.34245049 12.54059418 24.64213573 10 23 C8.4365975 20.27666223 7.58237221 17.78239063 6.80834961 14.74438477 C4.63699779 7.37254369 -1.29993818 2.09473444 -7.6953125 -1.78125 C-16.54484509 -6.46100282 -25.74671336 -7.75286789 -35.51171875 -5.015625 C-46.17825319 -1.0749669 -52.00319429 3.35565267 -58 13 C-58.33515625 13.7425 -58.6703125 14.485 -59.015625 15.25 C-60 17 -60 17 -63 18 C-65.03295882 18.11236415 -67.06646066 18.21954072 -69.10131836 18.28955078 C-84.79962278 18.83457673 -99.45252562 21.74595788 -114.6875 25.5 C-116.4972229 25.94496826 -116.4972229 25.94496826 -118.34350586 26.39892578 C-124.16528609 27.87468602 -129.54553646 29.50177242 -135 32 C-137.13552237 32.69899168 -139.28158802 33.36668436 -141.4375 34 C-145.22565785 35.12773895 -148.90621085 36.31301063 -152.5625 37.8125 C-156.02038007 39.00704039 -156.73840601 39.04913417 -160 38 C-128.90251048 24.69499815 -95.19133484 14.25170479 -61 15 C-60.62875 13.6696875 -60.62875 13.6696875 -60.25 12.3125 C-56.85222838 3.3084052 -48.50198312 -3.03333251 -40 -7 C-26.40734751 -12.50115209 -11.34448548 -8.42242104 0 0 Z " fill="#3D1414" transform="translate(164,70)" data-index="15"></path>
<path d="M0 0 C1.52734375 2.046875 1.52734375 2.046875 2.9375 4.75 C5.20898117 8.80784702 7.13330873 11.32305989 11 14 C12.175625 15.2684375 12.175625 15.2684375 13.375 16.5625 C20.03952844 22.75099069 28.67743535 23.34295553 37.390625 23.2109375 C45.58203033 22.54875803 52.79982739 19.3774574 59 14 C60.65742613 11.90938296 62.13208605 9.81933965 63.515625 7.5390625 C65 6 65 6 67.671875 5.7734375 C68.44015625 5.84820312 69.2084375 5.92296875 70 6 C70 6.66 70 7.32 70 8 C69.40574219 8.25136719 68.81148437 8.50273438 68.19921875 8.76171875 C65.72059191 10.15732214 64.5460309 11.57389096 62.8125 13.8125 C56.32471801 21.43219289 46.9285445 25.33008775 37.05078125 26.28515625 C26.22882102 26.60385674 17.37487424 23.94648456 9 17 C4.09972246 12.29370935 1.05062402 8.5147305 -1 2 C-23.88509874 4.31436979 -46.14872794 6.73358232 -68.21923828 13.51342773 C-71.91869852 14.61440686 -74.31665698 15.1509495 -78 14 C-65.87329986 8.56113059 -52.76794064 6.15776423 -39.75 3.8125 C-39.03542633 3.68204285 -38.32085266 3.55158569 -37.58462524 3.41717529 C-25.01875229 1.14076047 -12.76913117 0 0 0 Z " fill="#171718" transform="translate(104,112)" data-index="16"></path>
<path d="M0 0 C5.57739818 3.7513167 10.2048489 9.0387954 11.63671875 15.7734375 C12.38115141 27.28457218 12.38115141 27.28457218 10.63671875 30.7734375 C9.97671875 30.7734375 9.31671875 30.7734375 8.63671875 30.7734375 C8.67152344 29.9278125 8.70632812 29.0821875 8.7421875 28.2109375 C8.95057778 19.47839246 8.40407406 13.88493682 3.44921875 6.5234375 C-1.56483406 1.62080808 -7.87303509 -1.30722638 -14.92578125 -1.6015625 C-21.69991807 -1.51255924 -27.24179058 0.94216807 -32.25390625 5.48828125 C-37.79039356 11.62948198 -38.89708346 17.23142875 -38.73046875 25.4140625 C-38.04548799 31.68090777 -35.96171356 36.5782102 -31.09765625 40.6875 C-25.61703622 44.4178575 -21.8966298 45.91222441 -15.23828125 46.3359375 C-13.95695312 46.41972656 -12.675625 46.50351563 -11.35546875 46.58984375 C-9.87433594 46.68072266 -9.87433594 46.68072266 -8.36328125 46.7734375 C-8.36328125 47.4334375 -8.36328125 48.0934375 -8.36328125 48.7734375 C-12.56547012 50.87453194 -17.5023495 50.26836616 -21.93359375 49.08984375 C-30.75969636 45.83741144 -35.97604165 41.27092562 -40.41796875 33.01953125 C-43.64761588 25.3457829 -42.71596531 18.06840766 -39.75 10.4921875 C-36.36718244 3.85995926 -30.78123732 -0.94905607 -23.8359375 -3.59375 C-14.96604928 -5.86376878 -7.92430096 -4.41274799 0 0 Z " fill="#1E1E1E" transform="translate(154.36328125,76.2265625)" data-index="17"></path>
<path d="M0 0 C1.125 3.75 1.125 3.75 0 6 C-0.66 6 -1.32 6 -2 6 C-2 7.65 -2 9.3 -2 11 C-2.66 11 -3.32 11 -4 11 C-3.90460937 11.66386719 -3.80921875 12.32773438 -3.7109375 13.01171875 C-2.65319426 21.43676662 -2.65319426 21.43676662 -5 26 C-6.04017652 29.78246006 -5.81349379 32.20369564 -5 36 C-4.96175377 38.33301986 -4.95425716 40.66711508 -5 43 C-4.63261719 42.49855469 -4.26523438 41.99710938 -3.88671875 41.48046875 C-1.12767014 39.315501 0.77392054 39.90874329 4.1875 40.3125 C5.27417969 40.43238281 6.36085938 40.55226562 7.48046875 40.67578125 C8.31191406 40.78277344 9.14335937 40.88976562 10 41 C7.95864363 43.04135637 6.91460834 43.54390561 4.26171875 44.47265625 C3.52373047 44.73240234 2.78574219 44.99214844 2.02539062 45.25976562 C1.25388672 45.52466797 0.48238281 45.78957031 -0.3125 46.0625 C-1.07240234 46.33126953 -1.83230469 46.60003906 -2.61523438 46.87695312 C-6.38523831 48.19039498 -10.04536347 49.36062763 -14 50 C-14.35539294 32.15137702 -8.44280493 15.54073828 0 0 Z " fill="#E64337" transform="translate(17,58)" data-index="18"></path>
<path d="M0 0 C-3.1964086 1.06546953 -5.65747276 1.07427838 -9 1 C-8.505 -0.485 -8.505 -0.485 -8 -2 C-9.32 -2.33 -10.64 -2.66 -12 -3 C-12 -3.66 -12 -4.32 -12 -5 C-12.53109375 -5.13277344 -13.0621875 -5.26554688 -13.609375 -5.40234375 C-18.40625 -6.6015625 -23.203125 -7.80078125 -28 -9 C-28 -9.66 -28 -10.32 -28 -11 C-28.85464844 -11.06058594 -29.70929688 -11.12117187 -30.58984375 -11.18359375 C-32.24693359 -11.30927734 -32.24693359 -11.30927734 -33.9375 -11.4375 C-35.03964844 -11.51871094 -36.14179688 -11.59992187 -37.27734375 -11.68359375 C-40 -12 -40 -12 -41 -13 C-53.25466357 -13.90460552 -65.91859856 -13.53499957 -78.0625 -11.6875 C-78.83891846 -11.56987305 -79.61533691 -11.45224609 -80.4152832 -11.33105469 C-85.14540873 -10.52649609 -89.48079128 -9.23524297 -93.95483398 -7.49926758 C-96.32577833 -6.92047073 -97.71155608 -7.23204207 -100 -8 C-97.23229617 -8.96823963 -94.46133261 -9.92460317 -91.6875 -10.875 C-90.92115234 -11.14441406 -90.15480469 -11.41382813 -89.36523438 -11.69140625 C-60.91459547 -21.37170662 -24.85216795 -17.44123869 0 0 Z " fill="#C94A44" transform="translate(170,19)" data-index="19" style="opacity: 1;"></path>
<path d="M0 0 C2.23571879 3.35357819 2.25648895 4.48981044 2.265625 8.41015625 C2.26949219 10.01987305 2.26949219 10.01987305 2.2734375 11.66210938 C2.26570313 12.78423828 2.25796875 13.90636719 2.25 15.0625 C2.26160156 16.70508789 2.26160156 16.70508789 2.2734375 18.38085938 C2.2572988 25.15508069 1.62785314 31.42091474 0 38 C-1.98 38.495 -1.98 38.495 -4 39 C-4 38.34 -4 37.68 -4 37 C-5.07519897 36.80531128 -5.07519897 36.80531128 -6.17211914 36.60668945 C-8.95743278 36.00913231 -11.55192388 35.21443386 -14.24609375 34.29296875 C-15.24253906 33.95523438 -16.23898438 33.6175 -17.265625 33.26953125 C-18.31234375 32.91246094 -19.3590625 32.55539063 -20.4375 32.1875 C-29.23545456 29.21593513 -38.02690419 26.40125099 -47 24 C-47 23.67 -47 23.34 -47 23 C-31.15162577 23.76685682 -16.3712139 29.68758073 -2 36 C-1.10426911 29.19804354 -0.90712135 22.60444408 -1 15.75 C-1.02562423 13.82818291 -1.04661634 11.90629728 -1.0625 9.984375 C-1.07410156 9.14616211 -1.08570313 8.30794922 -1.09765625 7.44433594 C-0.99485683 4.8712664 -0.56852827 2.50801548 0 0 Z " fill="#201F20" transform="translate(223,97)" data-index="20"></path>
<path d="M0 0 C1.00160156 0.33773437 2.00320312 0.67546875 3.03515625 1.0234375 C4.3775767 1.47404017 5.72002617 1.92455638 7.0625 2.375 C7.71927734 2.59671875 8.37605469 2.8184375 9.05273438 3.046875 C20.01052936 6.71746642 30.06345363 8.04786916 41.5625 8.5625 C42.47580078 8.60568359 43.38910156 8.64886719 44.33007812 8.69335938 C46.55327991 8.79811757 48.77656707 8.90029017 51 9 C51 9.33 51 9.66 51 10 C36.18986805 11.80685395 23.28225696 12.88400804 9 8 C8.27893066 7.75644775 7.55786133 7.51289551 6.81494141 7.26196289 C1.19375281 5.28255619 1.19375281 5.28255619 -0.5 2.8125 C-0.665 2.214375 -0.83 1.61625 -1 1 C-0.67 0.67 -0.34 0.34 0 0 Z " fill="#1B1919" transform="translate(68,211)" data-index="21"></path>
<path d="M0 0 C0.56203125 0.14308594 1.1240625 0.28617187 1.703125 0.43359375 C4.04545453 1.01120902 6.39417659 1.54283307 8.75 2.0625 C9.54921875 2.23910156 10.3484375 2.41570312 11.171875 2.59765625 C11.77515625 2.73042969 12.3784375 2.86320312 13 3 C13 3.66 13 4.32 13 5 C14.32 5 15.64 5 17 5 C17 5.66 17 6.32 17 7 C17.804375 6.979375 18.60875 6.95875 19.4375 6.9375 C22 7 22 7 23 8 C24.68608966 8.07205511 26.37500659 8.08386068 28.0625 8.0625 C28.98160156 8.05347656 29.90070313 8.04445313 30.84765625 8.03515625 C31.55792969 8.02355469 32.26820313 8.01195313 33 8 C33 9.32 33 10.64 33 12 C36.3 13.32 39.6 14.64 43 16 C43 11.38 43 6.76 43 2 C45.42479736 5.63719605 45.38662577 7.85703482 45.625 12.1875 C45.69976562 13.45980469 45.77453125 14.73210937 45.8515625 16.04296875 C45.90054688 17.01878906 45.94953125 17.99460937 46 19 C41.97690572 18.45775686 38.75923714 17.60639661 35.125 15.8125 C24.13610559 10.65444752 12.87982393 6.56496198 1 4 C0.67 2.68 0.34 1.36 0 0 Z " fill="#C6473D" transform="translate(176,88)" data-index="22"></path>
<path d="M0 0 C1.125 3.75 1.125 3.75 0 6 C-0.66 6 -1.32 6 -2 6 C-2 7.65 -2 9.3 -2 11 C-2.66 11 -3.32 11 -4 11 C-4.0825 12.11375 -4.165 13.2275 -4.25 14.375 C-4.66886094 17.86756108 -5.60702863 20.71246846 -7 23.9375 C-9.04155808 28.69867878 -9.59169424 32.85534746 -10 38 C-10.495 38.495 -10.495 38.495 -11 39 C-11.23192865 40.51469448 -11.41215238 42.03754562 -11.5625 43.5625 C-11.64628906 44.38878906 -11.73007813 45.21507812 -11.81640625 46.06640625 C-11.87699219 46.70449219 -11.93757812 47.34257813 -12 48 C-11.39671875 47.69964844 -10.7934375 47.39929688 -10.171875 47.08984375 C-9.37265625 46.70957031 -8.5734375 46.32929687 -7.75 45.9375 C-6.96109375 45.55464844 -6.1721875 45.17179687 -5.359375 44.77734375 C-2.74006478 43.91435909 -1.55144824 44.06954067 1 45 C-0.93467942 45.83986084 -2.87285129 46.67168027 -4.8125 47.5 C-5.89144531 47.9640625 -6.97039063 48.428125 -8.08203125 48.90625 C-11 50 -11 50 -14 50 C-14.35539294 32.15137702 -8.44280493 15.54073828 0 0 Z " fill="#C34A42" transform="translate(17,58)" data-index="23"></path>
<path d="M0 0 C0.99 0.33 1.98 0.66 3 1 C3.07476562 1.76183594 3.14953125 2.52367188 3.2265625 3.30859375 C4.29962421 11.73528422 6.31757582 17.9906142 12.90234375 23.62890625 C19.38339506 27.86512414 26.44661166 27.88181042 34 28 C34 28.66 34 29.32 34 30 C29.79781113 32.10109444 24.86093175 31.49492866 20.4296875 30.31640625 C11.60358489 27.06397394 6.3872396 22.49748812 1.9453125 14.24609375 C-0.04379593 9.51990637 -0.09968236 5.08380061 0 0 Z " fill="#1D1D1D" transform="translate(112,95)" data-index="24"></path>
<path d="M0 0 C7.58001403 0.07227665 14.515261 0.30905509 20.5625 5.1875 C21.88086295 5.88330267 23.21041086 6.55974433 24.5625 7.1875 C24.5625 7.8475 24.5625 8.5075 24.5625 9.1875 C25.67625 9.2184375 25.67625 9.2184375 26.8125 9.25 C29.93762625 10.31538395 30.31372451 10.88842733 31.9375 13.625 C32.47375 14.800625 33.01 15.97625 33.5625 17.1875 C33.2325 17.8475 32.9025 18.5075 32.5625 19.1875 C32.18480469 18.67960937 31.80710938 18.17171875 31.41796875 17.6484375 C25.62791382 10.40747887 17.91479353 5.29440875 8.72265625 3.42578125 C1.30123745 2.60714373 -6.08019979 3.05560766 -13.4375 4.1875 C-13.4375 3.5275 -13.4375 2.8675 -13.4375 2.1875 C-12.303125 2.043125 -11.16875 1.89875 -10 1.75 C-6.09232602 1.13299885 -4.13415272 0.02633218 0 0 Z " fill="#C74A42" transform="translate(137.4375,58.8125)" data-index="25"></path>
<path d="M0 0 C1.78567383 0.01353516 1.78567383 0.01353516 3.60742188 0.02734375 C6.50933367 0.05065228 9.41080317 0.08336877 12.3125 0.125 C12.3125 0.455 12.3125 0.785 12.3125 1.125 C5.0525 1.125 -2.2075 1.125 -9.6875 1.125 C-9.6875 1.785 -9.6875 2.445 -9.6875 3.125 C-10.52559204 3.23775269 -10.52559204 3.23775269 -11.38061523 3.3527832 C-13.96338073 3.70545105 -16.54410519 4.07140271 -19.125 4.4375 C-20.00349609 4.55544922 -20.88199219 4.67339844 -21.78710938 4.79492188 C-27.0353957 5.55021031 -31.76335079 6.66997933 -36.69946289 8.62573242 C-39.04105452 9.21379025 -40.4235621 8.88196958 -42.6875 8.125 C-39.91979617 7.15676037 -37.14883261 6.20039683 -34.375 5.25 C-33.60865234 4.98058594 -32.84230469 4.71117187 -32.05273438 4.43359375 C-21.334796 0.78682634 -11.29109017 -0.16483343 0 0 Z " fill="#B94A41" transform="translate(112.6875,2.875)" data-index="26" style="opacity: 1;"></path>
<path d="M0 0 C-2.55389867 2.10321067 -5.04522064 4.02752561 -7.875 5.75 C-11.3758266 8.27059515 -13.84698828 11.0820079 -16.58203125 14.390625 C-17.04996094 14.92171875 -17.51789063 15.4528125 -18 16 C-18.33 16 -18.66 16 -19 16 C-19.875 13.4375 -19.875 13.4375 -20 10 C-18.29275002 7.3682085 -16.23621992 5.19084734 -14 3 C-12.68 3.33 -11.36 3.66 -10 4 C-10 3.34 -10 2.68 -10 2 C-6.49223216 0.39644899 -3.85645121 -0.22036864 0 0 Z " fill="#D9463A" transform="translate(124,63)" data-index="27"></path>
<path d="M0 0 C7.27794598 6.216118 11.89764229 19.91154678 14 29 C14.05838632 30.99914758 14.07347977 33.00135027 14 35 C9.85081361 28.77622041 8.48425277 23.36398184 8 16 C7.34 16 6.68 16 6 16 C6 15.34 6 14.68 6 14 C5.34 14 4.68 14 4 14 C0.74031891 4.58997722 0.74031891 4.58997722 0 0 Z " fill="#C74942" transform="translate(205,55)" data-index="28"></path>
<path d="M0 0 C2.0625 0.4375 2.0625 0.4375 4 1 C0.68847479 5.07572334 -2.75273157 8.88135707 -6.5625 12.5 C-7.28566406 13.1909375 -8.00882813 13.881875 -8.75390625 14.59375 C-11 16 -11 16 -13.77734375 15.71875 C-14.51082031 15.4815625 -15.24429688 15.244375 -16 15 C-11.88953193 10.75251633 -7.51621775 6.82809989 -3.109375 2.890625 C-1.52811291 1.4733801 -1.52811291 1.4733801 0 0 Z " fill="#1D1A1A" transform="translate(193,185)" data-index="29"></path>
<path d="M0 0 C0.33 0.66 0.66 1.32 1 2 C0.69449219 2.73089844 0.38898437 3.46179687 0.07421875 4.21484375 C-1.1942057 7.50352241 -1.23229893 10.04782007 -1.1875 13.5625 C-1.18105469 14.67753906 -1.17460937 15.79257812 -1.16796875 16.94140625 C-1.02879876 19.47559459 -0.73749391 21.58691993 0 24 C-1.32 23.67 -2.64 23.34 -4 23 C-4.33 19.37 -4.66 15.74 -5 12 C-6.65 13.65 -8.3 15.3 -10 17 C-10.33 16.34 -10.66 15.68 -11 15 C-9.3553057 12.68668225 -7.70930345 10.37431549 -6.0625 8.0625 C-5.59392578 7.40314453 -5.12535156 6.74378906 -4.64257812 6.06445312 C-1.11328125 1.11328125 -1.11328125 1.11328125 0 0 Z " fill="#CA4B43" transform="translate(29,41)" data-index="30"></path>
<path d="M0 0 C-1.305239 2.61047801 -2.35826574 2.68066423 -5.0625 3.625 C-6.16271484 4.01558594 -6.16271484 4.01558594 -7.28515625 4.4140625 C-7.85105469 4.60742188 -8.41695312 4.80078125 -9 5 C-7.53626953 5.27263672 -7.53626953 5.27263672 -6.04296875 5.55078125 C-4.77066406 5.80214844 -3.49835938 6.05351562 -2.1875 6.3125 C-0.92292969 6.55613281 0.34164062 6.79976562 1.64453125 7.05078125 C4.80837446 7.94579161 6.06561381 8.43280346 8 11 C5 11 5 11 2.703125 10.015625 C-5.02215842 7.11306187 -14.25024896 8.8983726 -22 11 C-5.90243902 -2.95121951 -5.90243902 -2.95121951 0 0 Z " fill="#BD4E46" transform="translate(70,13)" data-index="31" style="opacity: 1;"></path>
<path d="M0 0 C0.33 0.99 0.66 1.98 1 3 C-4.3978551 3.90563215 -9.59430065 4.1523638 -15.0625 4.125 C-15.83916016 4.12886719 -16.61582031 4.13273438 -17.41601562 4.13671875 C-21.7222659 4.1294262 -25.75958423 3.85486782 -30 3 C-30 2.67 -30 2.34 -30 2 C-26.50056733 1.66052975 -23.00037948 1.32955227 -19.5 1 C-18.51773438 0.90460938 -17.53546875 0.80921875 -16.5234375 0.7109375 C-10.98601633 0.19411152 -5.56118702 -0.10592737 0 0 Z " fill="#161112" transform="translate(127,220)" data-index="32"></path>
<path d="M0 0 C0.66 0.33 1.32 0.66 2 1 C2 1.99 2 2.98 2 4 C0.42578125 5.46484375 0.42578125 5.46484375 -1.6875 6.9375 C-2.41582031 7.45828125 -3.14414062 7.9790625 -3.89453125 8.515625 C-4.58933594 9.00546875 -5.28414062 9.4953125 -6 10 C-9.02846607 12.30426766 -10.8824094 13.8236141 -13 17 C-14.32 17 -15.64 17 -17 17 C-15.42432234 13.0051937 -12.79864856 10.75804825 -9.625 7.9375 C-8.66851562 7.08027344 -7.71203125 6.22304688 -6.7265625 5.33984375 C-4.53649528 3.46040211 -2.33727991 1.68926629 0 0 Z " fill="#22191B" transform="translate(46,21)" data-index="33"></path>
<path d="M0 0 C1.0415625 0.00902344 2.083125 0.01804687 3.15625 0.02734375 C4.31640625 0.04474609 4.31640625 0.04474609 5.5 0.0625 C5.5 0.3925 5.5 0.7225 5.5 1.0625 C4.33726563 1.23265625 3.17453125 1.4028125 1.9765625 1.578125 C-8.65386245 3.17319245 -19.0955735 5.20046181 -29.56591797 7.62353516 C-33.52702842 8.52256022 -37.51254872 9.29073524 -41.5 10.0625 C-41.17 9.4025 -40.84 8.7425 -40.5 8.0625 C-38.61151879 7.54190306 -36.71852842 7.03349729 -34.80859375 6.59814453 C-32.53455936 6.07051853 -30.30446081 5.45823046 -28.0625 4.80859375 C-26.93714844 4.48665039 -26.93714844 4.48665039 -25.7890625 4.15820312 C-24.26197913 3.71910151 -22.73593039 3.27638577 -21.2109375 2.83007812 C-14.13144434 0.81692328 -7.39250516 -0.08400574 0 0 Z " fill="#C24A42" transform="translate(77.5,85.9375)" data-index="34"></path>
<path d="M0 0 C0 0.99 0 1.98 0 3 C-0.96421875 3.47050781 -1.9284375 3.94101563 -2.921875 4.42578125 C-4.19802296 5.05447179 -5.47405874 5.68339007 -6.75 6.3125 C-7.70132813 6.7755957 -7.70132813 6.7755957 -8.671875 7.24804688 C-11.39266942 8.59427328 -13.87980682 9.9048816 -16.265625 11.79296875 C-16.83796875 12.19128906 -17.4103125 12.58960938 -18 13 C-18.99 12.67 -19.98 12.34 -21 12 C-17.44600462 8.14651062 -14.00526595 5.63036445 -9.375 3.1875 C-7.68503906 2.28064453 -7.68503906 2.28064453 -5.9609375 1.35546875 C-3 0 -3 0 0 0 Z " fill="#370E10" transform="translate(68,10)" data-index="35"></path>
<path d="M0 0 C5.45176126 -0.08833872 9.18055724 0.64134952 13.4375 4.1875 C17.6666005 8.31570745 18.83020807 11.62291295 19.25 17.5 C19.00024535 20.99656515 18.26967017 23.7464702 17 27 C15.9834263 23.73626338 16.06792277 21.07801174 16.3125 17.6875 C16.38819946 13.33186942 15.92475632 11.19788409 13 7.9375 C12.443125 7.41027344 11.88625 6.88304687 11.3125 6.33984375 C10 5 10 5 10 3 C6.7 2.34 3.4 1.68 0 1 C0 0.67 0 0.34 0 0 Z " fill="#FCDAD4" transform="translate(64,21)" data-index="36" style="opacity: 1;"></path>
<path d="M0 0 C2.2654445 3.39816675 2.25668408 4.6331242 2.265625 8.62109375 C2.26820313 9.72130859 2.27078125 10.82152344 2.2734375 11.95507812 C2.26570312 13.10427734 2.25796875 14.25347656 2.25 15.4375 C2.25773438 16.58283203 2.26546875 17.72816406 2.2734375 18.90820312 C2.27085937 20.00970703 2.26828125 21.11121094 2.265625 22.24609375 C2.26336914 23.25341553 2.26111328 24.2607373 2.25878906 25.29858398 C1.99780652 28.02289706 1.39537104 29.67241857 0 32 C-0.19725192 27.60454738 -0.38110072 23.20863314 -0.5625 18.8125 C-0.61857422 17.56662109 -0.67464844 16.32074219 -0.73242188 15.03710938 C-0.78076172 13.83505859 -0.82910156 12.63300781 -0.87890625 11.39453125 C-0.9260376 10.28956299 -0.97316895 9.18459473 -1.02172852 8.04614258 C-1.00147534 5.20682971 -0.66505747 2.75203915 0 0 Z " fill="#2E2325" transform="translate(223,97)" data-index="37"></path>
<path d="M0 0 C9.99739062 3.53889933 17.97622802 12.33362761 25 20 C25 20.33 25 20.66 25 21 C22.8125 21.5 22.8125 21.5 20 21 C18.51121223 19.08775463 17.3822903 17.08843703 16.203125 14.97265625 C14.81151064 12.69095089 13.20659339 11.47106226 11 10 C11 9.34 11 8.68 11 8 C10.29875 7.7525 9.5975 7.505 8.875 7.25 C5.60485452 5.82819762 2.858878 4.12753712 0 2 C0 1.34 0 0.68 0 0 Z " fill="#D24C45" transform="translate(170,20)" data-index="38" style="opacity: 1;"></path>
<path d="M0 0 C1.50013557 4.50040671 0.40004029 8.50154854 -0.3125 13.125 C-0.44333984 14.05699219 -0.57417969 14.98898438 -0.70898438 15.94921875 C-0.84240234 16.83480469 -0.97582031 17.72039062 -1.11328125 18.6328125 C-1.23485596 19.44637207 -1.35643066 20.25993164 -1.48168945 21.09814453 C-1.73825317 22.03956299 -1.73825317 22.03956299 -2 23 C-2.66 23.33 -3.32 23.66 -4 24 C-4.05454409 21.64551325 -4.0939279 19.29232125 -4.125 16.9375 C-4.14820313 15.62652344 -4.17140625 14.31554687 -4.1953125 12.96484375 C-3.99417522 8.88175701 -3.27165462 5.85000947 -2 2 C-1.34 2 -0.68 2 0 2 C0 1.34 0 0.68 0 0 Z " fill="#330F12" transform="translate(5,85)" data-index="39"></path>
<path d="M0 0 C0 0.66 0 1.32 0 2 C-0.66 2 -1.32 2 -2 2 C-2.33 2.99 -2.66 3.98 -3 5 C-3.99 5 -4.98 5 -6 5 C-7.68798827 6.43750191 -7.68798827 6.43750191 -9 8 C-9 7.01 -9 6.02 -9 5 C-7.5390625 3.61328125 -7.5390625 3.61328125 -5.625 2.3125 C-4.68527344 1.65701172 -4.68527344 1.65701172 -3.7265625 0.98828125 C-2 0 -2 0 0 0 Z M-13 8 C-12.34 8 -11.68 8 -11 8 C-11 10.31 -11 12.62 -11 15 C-14 16 -14 16 -17 16 C-17.66 15.67 -18.32 15.34 -19 15 C-18.04882866 13.8274869 -17.08882991 12.66212985 -16.125 11.5 C-15.59132812 10.8503125 -15.05765625 10.200625 -14.5078125 9.53125 C-13.76144531 8.77328125 -13.76144531 8.77328125 -13 8 Z " fill="#EBE8E9" transform="translate(50,24)" data-index="40"></path>
<path d="M0 0 C1.32 0.33 2.64 0.66 4 1 C4 1.66 4 2.32 4 3 C4.66 3 5.32 3 6 3 C8.4579123 10.52735642 8.4579123 16.47264358 6 24 C5.34 24 4.68 24 4 24 C3.01 26.475 3.01 26.475 2 29 C1.67 28.34 1.34 27.68 1 27 C1.77734375 24.86328125 1.77734375 24.86328125 2.9375 22.3125 C5.39273374 16.37901846 5.87707134 12.39201276 3.625 6.25 C2.06718548 2.96640726 2.06718548 2.96640726 0 0 Z " fill="#D24840" transform="translate(77,25)" data-index="41"></path>
<path d="M0 0 C0.33 0.99 0.66 1.98 1 3 C-1.51066469 6.05906926 -3.90059933 6.75191278 -7.6875 7.6875 C-9.17830078 8.06455078 -9.17830078 8.06455078 -10.69921875 8.44921875 C-11.45847656 8.63097656 -12.21773437 8.81273437 -13 9 C-13 7.68 -13 6.36 -13 5 C-8.71 3.35 -4.42 1.7 0 0 Z " fill="#221E1F" transform="translate(156,211)" data-index="42"></path>
<path d="M0 0 C2.42479736 3.63719605 2.38662577 5.85703482 2.625 10.1875 C2.69976562 11.45980469 2.77453125 12.73210937 2.8515625 14.04296875 C2.90054688 15.01878906 2.94953125 15.99460937 3 17 C-1.38237918 16.43432198 -4.88987351 15.33286504 -8.875 13.4375 C-9.84179688 12.98246094 -10.80859375 12.52742188 -11.8046875 12.05859375 C-12.52914062 11.70925781 -13.25359375 11.35992187 -14 11 C-8.79580397 9.06666549 -4.82941008 11.90301931 0 14 C0 9.38 0 4.76 0 0 Z " fill="#BA4B43" transform="translate(219,90)" data-index="43"></path>
<path d="M0 0 C2.40119059 3.60178588 2.43771322 6.50866369 2.625 10.6875 C2.66367188 11.38939453 2.70234375 12.09128906 2.7421875 12.81445312 C2.8362334 14.54254655 2.9191968 16.27123675 3 18 C0.69 17.34 -1.62 16.68 -4 16 C-3.67 14.35 -3.34 12.7 -3 11 C-2.01 11 -1.02 11 0 11 C-0.185625 9.9275 -0.37125 8.855 -0.5625 7.75 C-0.9304568 4.59608454 -1.04465343 2.90181508 0 0 Z " fill="#E34439" transform="translate(217,87)" data-index="44"></path>
<path d="M0 0 C0.37125 0.515625 0.7425 1.03125 1.125 1.5625 C2.69019542 3.59725404 4.30820821 5.51003573 6 7.4375 C12 14.40764925 12 14.40764925 12 19 C7.48760659 17.52635801 5.89518449 13.99136566 3.75 10.0625 C3.20472656 9.11213867 3.20472656 9.11213867 2.6484375 8.14257812 C1.02293213 5.23683451 0 3.38004412 0 0 Z " fill="#161212" transform="translate(11,158)" data-index="45" style="opacity: 1;"></path>
<path d="M0 0 C0.66 0 1.32 0 2 0 C2.721875 0.763125 3.44375 1.52625 4.1875 2.3125 C9.11353496 7.01960007 14.33929133 8.32033585 21 9 C21.33 9.99 21.66 10.98 22 12 C14.90174981 10.98812178 7.84852728 9.35265395 2 5 C0.71875 2.33203125 0.71875 2.33203125 0 0 Z " fill="#242425" transform="translate(113,126)" data-index="46"></path>
<path d="M0 0 C0 0.99 0 1.98 0 3 C-6.37952557 6.76971965 -11.03170373 7.55511992 -18.375 7.3125 C-19.72658203 7.29799805 -19.72658203 7.29799805 -21.10546875 7.28320312 C-27.65959821 7.17020089 -27.65959821 7.17020089 -30 6 C-30 5.34 -30 4.68 -30 4 C-28.95005859 4.23589844 -28.95005859 4.23589844 -27.87890625 4.4765625 C-17.48785296 6.36584492 -9.35465895 4.71946758 0 0 Z " fill="#C94F46" transform="translate(64,66)" data-index="47"></path>
<path d="M0 0 C0.66 0 1.32 0 2 0 C-0.58749599 6.96633536 -3.47825488 11.33241029 -10 15 C-12.9375 15.8125 -12.9375 15.8125 -15 16 C-15 15.34 -15 14.68 -15 14 C-13.4609375 12.95703125 -13.4609375 12.95703125 -11.375 11.8125 C-6.50258655 8.90462981 -2.55946376 5.11892753 0 0 Z " fill="#1E1E1F" transform="translate(162,108)" data-index="48"></path>
<path d="M0 0 C0 3.63 0 7.26 0 11 C-1.32 10.01 -2.64 9.02 -4 8 C-4.33 8.99 -4.66 9.98 -5 11 C-5.66 10.67 -6.32 10.34 -7 10 C-6.25 5.25 -6.25 5.25 -4 3 C-3.2265625 2.195625 -3.2265625 2.195625 -2.4375 1.375 C-1 0 -1 0 0 0 Z " fill="#E44439" transform="translate(25,52)" data-index="49"></path>
<path d="M0 0 C0.99 0.33 1.98 0.66 3 1 C-6.92960191 7.68135448 -13.91416212 9.4974354 -26 9 C-26 8.67 -26 8.34 -26 8 C-25.23816406 7.97421875 -24.47632813 7.9484375 -23.69140625 7.921875 C-15.28228585 7.45995078 -9.22138595 5.66130853 -2.125 1.1875 C-1.42375 0.795625 -0.7225 0.40375 0 0 Z " fill="#FEE0DE" transform="translate(65,63)" data-index="50"></path>
<path d="M0 0 C7.92 0.33 15.84 0.66 24 1 C24 1.33 24 1.66 24 2 C11.625 2.99 11.625 2.99 -1 4 C-0.34 3.67 0.32 3.34 1 3 C0.67 2.01 0.34 1.02 0 0 Z " fill="#363234" transform="translate(95,219)" data-index="51"></path>
<path d="M0 0 C0 0.66 0 1.32 0 2 C-2.91355841 2.86627405 -5.83004328 3.71831006 -8.75 4.5625 C-9.575 4.80935547 -10.4 5.05621094 -11.25 5.31054688 C-12.04921875 5.53935547 -12.8484375 5.76816406 -13.671875 6.00390625 C-14.4050293 6.21861572 -15.13818359 6.4333252 -15.89355469 6.65454102 C-18.23869816 7.03914672 -19.75825808 6.72878764 -22 6 C-14.99822259 2.8035364 -7.80626383 -0.29169313 0 0 Z " fill="#222022" transform="translate(48,120)" data-index="52"></path>
<path d="M0 0 C1.32 0 2.64 0 4 0 C5.5625 2.01171875 5.5625 2.01171875 7 4.6875 C9.08355591 8.41569015 11.19056855 11.75834833 14 15 C13.67 15.66 13.34 16.32 13 17 C11.70291686 15.58829091 10.41254022 14.17041804 9.125 12.75 C8.40570313 11.96109375 7.68640625 11.1721875 6.9453125 10.359375 C4.2959547 7.14609767 3 5.19598738 3 1 C2.01 0.67 1.02 0.34 0 0 Z " fill="#1D1D1F" transform="translate(100,112)" data-index="53"></path>
<path d="M0 0 C0.66 1.32 1.32 2.64 2 4 C1.38125 4.061875 0.7625 4.12375 0.125 4.1875 C-2.27761141 4.828919 -2.27761141 4.828919 -3.25 7.5625 C-3.4975 8.366875 -3.745 9.17125 -4 10 C-5.65 10 -7.3 10 -9 10 C-6.68116787 5.49115974 -3.93548431 3.06093224 0 0 Z " fill="#DD4441" transform="translate(73,59)" data-index="54"></path>
<path d="M0 0 C0.33 0 0.66 0 1 0 C1 2.31 1 4.62 1 7 C1.60328125 6.69964844 2.2065625 6.39929688 2.828125 6.08984375 C3.62734375 5.70957031 4.4265625 5.32929687 5.25 4.9375 C6.03890625 4.55464844 6.8278125 4.17179687 7.640625 3.77734375 C10.25993522 2.91435909 11.44855176 3.06954067 14 4 C12.06532058 4.83986084 10.12714871 5.67168027 8.1875 6.5 C6.56908203 7.19609375 6.56908203 7.19609375 4.91796875 7.90625 C2 9 2 9 -1 9 C-1.09765625 2.84765625 -1.09765625 2.84765625 -1 1 C-0.67 0.67 -0.34 0.34 0 0 Z " fill="#B54644" transform="translate(4,99)" data-index="55"></path>
<path d="M0 0 C0.66 0 1.32 0 2 0 C2.22119939 2.62450086 2.42746669 5.24870486 2.625 7.875 C2.68945312 8.62136719 2.75390625 9.36773437 2.8203125 10.13671875 C2.96087365 12.0870047 2.98759849 14.04469467 3 16 C2.34 16.66 1.68 17.32 1 18 C-0.2039337 14.24600202 -0.09877617 10.66782588 -0.0625 6.75 C-0.05347656 5.48671875 -0.04445312 4.2234375 -0.03515625 2.921875 C-0.02355469 1.95765625 -0.01195313 0.9934375 0 0 Z " fill="#191215" transform="translate(1,115)" data-index="56"></path>
<path d="M0 0 C6.15234375 -0.09765625 6.15234375 -0.09765625 8 0 C8.33 0.33 8.66 0.66 9 1 C11.01311449 1.39569108 13.03597208 1.74252191 15.0625 2.0625 C16.71958984 2.32740234 16.71958984 2.32740234 18.41015625 2.59765625 C19.26480469 2.73042969 20.11945313 2.86320313 21 3 C17.91915045 3.85659135 14.93207999 4.26941369 11.75 4.5625 C10.85796875 4.64628906 9.9659375 4.73007813 9.046875 4.81640625 C8.03367188 4.90728516 8.03367188 4.90728516 7 5 C7 4.01 7 3.02 7 2 C5.02 2 3.04 2 1 2 C0.67 1.34 0.34 0.68 0 0 Z " fill="#E14539" transform="translate(121,5)" data-index="57"></path>
<path d="M0 0 C-2.62353518 1.00399524 -5.24867795 2.00334445 -7.875 3 C-8.62136719 3.28617188 -9.36773437 3.57234375 -10.13671875 3.8671875 C-15.7734375 6 -15.7734375 6 -18 6 C-17.67 5.01 -17.34 4.02 -17 3 C-14.19921875 1.796875 -14.19921875 1.796875 -10.6875 0.75 C-9.53636719 0.39421875 -8.38523437 0.0384375 -7.19921875 -0.328125 C-4.09312678 -0.98044224 -2.91572076 -0.87791945 0 0 Z " fill="#1E1C1C" transform="translate(25,128)" data-index="58"></path>
<path d="M0 0 C0.89203125 0.00902344 1.7840625 0.01804687 2.703125 0.02734375 C3.37859375 0.03894531 4.0540625 0.05054687 4.75 0.0625 C4.75 0.7225 4.75 1.3825 4.75 2.0625 C2.4103331 3.23233345 0.91608473 3.2286241 -1.6875 3.25 C-2.86119141 3.27126953 -2.86119141 3.27126953 -4.05859375 3.29296875 C-6.25 3.0625 -6.25 3.0625 -9.25 1.0625 C-6.09493858 0.12630187 -3.28413498 -0.0432123 0 0 Z " fill="#303031" transform="translate(141.25,122.9375)" data-index="59"></path>
<path d="M0 0 C3.96 0.33 7.92 0.66 12 1 C8.90097677 4.09902323 6.60852615 3.9898579 2.25 4.0625 C1.1775 4.041875 0.105 4.02125 -1 4 C-0.67 2.68 -0.34 1.36 0 0 Z " fill="#D7473D" transform="translate(15,98)" data-index="60"></path>
<path d="M0 0 C1.66666667 0.66666667 3.33333333 1.33333333 5 2 C5.9075 2.28875 6.815 2.5775 7.75 2.875 C8.4925 3.24625 9.235 3.6175 10 4 C10.5625 5.875 10.5625 5.875 11 8 C12.97901574 10.22977996 12.97901574 10.22977996 15 12 C14.67 12.66 14.34 13.32 14 14 C9.33333333 9.33333333 4.66666667 4.66666667 0 0 Z " fill="#521313" transform="translate(179,25)" data-index="61"></path>
<path d="M0 0 C2.64 0.33 5.28 0.66 8 1 C8.33 1.99 8.66 2.98 9 4 C2.9453125 4.1953125 2.9453125 4.1953125 1 4 C0.34 3.34 -0.32 2.68 -1 2 C-0.67 1.34 -0.34 0.68 0 0 Z " fill="#151314" transform="translate(87,218)" data-index="62"></path>
<path d="M0 0 C0.99 0.33 1.98 0.66 3 1 C3.22151549 2.79008467 3.42682213 4.58218162 3.625 6.375 C3.74101563 7.37273437 3.85703125 8.37046875 3.9765625 9.3984375 C3.98429687 10.25695312 3.99203125 11.11546875 4 12 C3.34 12.66 2.68 13.32 2 14 C0.4087311 9.126739 -0.21192221 5.19209404 0 0 Z " fill="#343434" transform="translate(112,95)" data-index="63"></path>
<path d="M0 0 C3.9252025 3.70090521 6.94580156 7.54959656 10 12 C9.67 12.66 9.34 13.32 9 14 C7.7899218 12.55462882 6.58095906 11.1083024 5.37890625 9.65625 C4.16314661 8.19596081 2.92684821 6.75282359 1.6875 5.3125 C0 3 0 3 0 0 Z " fill="#C54B42" transform="translate(195,41)" data-index="64"></path>
<path d="M0 0 C4.47034438 3.95944788 7.7085099 8.44586447 10 14 C9.67 14.66 9.34 15.32 9 16 C8.59007812 15.28972656 8.18015625 14.57945313 7.7578125 13.84765625 C7.21898437 12.92855469 6.68015625 12.00945313 6.125 11.0625 C5.32449219 9.68771484 5.32449219 9.68771484 4.5078125 8.28515625 C3.20287437 5.89299704 3.20287437 5.89299704 1 5 C0.375 2.4375 0.375 2.4375 0 0 Z " fill="#1B1010" transform="translate(203,47)" data-index="65"></path>
<path d="M0 0 C0.33 0.66 0.66 1.32 1 2 C0.71125 2.66 0.4225 3.32 0.125 4 C-1.46771537 8.24724098 -1.66799582 12.50046969 -2 17 C-2.33 17 -2.66 17 -3 17 C-3 14.03 -3 11.06 -3 8 C-3.66 8 -4.32 8 -5 8 C-3.62845496 5.04590299 -2.01136276 2.55991624 0 0 Z " fill="#B05E5B" transform="translate(29,41)" data-index="66"></path>
<path d="M0 0 C10.15317287 1.33041575 10.15317287 1.33041575 13.6875 4.125 C14.120625 4.74375 14.55375 5.3625 15 6 C14.67 6.66 14.34 7.32 14 8 C9.38 5.69 4.76 3.38 0 1 C0 0.67 0 0.34 0 0 Z " fill="#470D0C" transform="translate(153,10)" data-index="67"></path>
<path d="M0 0 C-0.33 1.32 -0.66 2.64 -1 4 C-6.53846154 4.36923077 -6.53846154 4.36923077 -8.875 2.5 C-9.24625 2.005 -9.6175 1.51 -10 1 C-6.59437148 0.22157062 -3.49234244 -0.09978121 0 0 Z " fill="#D5463E" transform="translate(209,96)" data-index="68"></path>
<path d="M0 0 C2.5 2.3125 2.5 2.3125 5 5 C5 5.99 5 6.98 5 8 C3.1875 7.8125 3.1875 7.8125 1 7 C-0.75 4.4375 -0.75 4.4375 -2 2 C-1.34 2 -0.68 2 0 2 C0 1.34 0 0.68 0 0 Z " fill="#211E1F" transform="translate(23,175)" data-index="69"></path>
<path d="M0 0 C0.66 0 1.32 0 2 0 C3.65 3.63 5.3 7.26 7 11 C3.21550448 9.73850149 2.86823143 8.41155305 1 5 C0.34 4.01 -0.32 3.02 -1 2 C-0.67 1.34 -0.34 0.68 0 0 Z " fill="#241F1F" transform="translate(10,154)" data-index="70"></path>
<path d="M0 0 C0.33 0 0.66 0 1 0 C0.88590407 1.45922693 0.75834456 2.91740598 0.625 4.375 C0.55539063 5.18710938 0.48578125 5.99921875 0.4140625 6.8359375 C0 9 0 9 -2 11 C-2.93750716 7.33519927 -3.28668844 5.59943946 -1.625 2.125 C-1.08875 1.42375 -0.5525 0.7225 0 0 Z " fill="#110D0E" transform="translate(221,134)" data-index="71"></path>
<path d="M0 0 C0.66 0.33 1.32 0.66 2 1 C0.68 5.29 -0.64 9.58 -2 14 C-2.33 14 -2.66 14 -3 14 C-3.32374517 8.49633208 -3.53286034 4.56327794 0 0 Z " fill="#181818" transform="translate(116,86)" data-index="72"></path>
<path d="M0 0 C4.87362847 0.45336079 7.39042389 1.7089159 11 5 C10.67 5.99 10.34 6.98 10 8 C8.70684939 7.04367001 7.41553147 6.08486149 6.125 5.125 C5.40570313 4.59132813 4.68640625 4.05765625 3.9453125 3.5078125 C2 2 2 2 0 0 Z " fill="#151516" transform="translate(148,75)" data-index="73"></path>
<path d="M0 0 C0.33 0.99 0.66 1.98 1 3 C-1.3125 5.0625 -1.3125 5.0625 -4 7 C-4.99 6.67 -5.98 6.34 -7 6 C-2.25 1.125 -2.25 1.125 0 0 Z " fill="#2D0B0C" transform="translate(54,16)" data-index="74"></path>
<path d="M0 0 C2.125 0.9375 2.125 0.9375 4 2 C3.34 2.433125 2.68 2.86625 2 3.3125 C1.34 3.869375 0.68 4.42625 0 5 C0 5.99 0 6.98 0 8 C-2 6 -2 6 -2.125 3.375 C-2.08375 2.59125 -2.0425 1.8075 -2 1 C-1.34 0.67 -0.68 0.34 0 0 Z " fill="#55504D" transform="translate(13,106)" data-index="75"></path>
<path d="M0 0 C1.89551022 -0.05441656 3.7914792 -0.09298035 5.6875 -0.125 C6.74324219 -0.14820312 7.79898438 -0.17140625 8.88671875 -0.1953125 C12.02251859 0.00141271 14.17645373 0.66942346 17 2 C16.01 2.66 15.02 3.32 14 4 C13.01 3.67 12.02 3.34 11 3 C11 2.34 11 1.68 11 1 C7.37 1 3.74 1 0 1 C0 0.67 0 0.34 0 0 Z " fill="#292729" transform="translate(133,72)" data-index="76"></path>
<path d="M0 0 C2.25 0.125 2.25 0.125 5 1 C7.3125 4.0625 7.3125 4.0625 9 7 C4.58110387 5.64978174 2.65654657 3.73884332 0 0 Z " fill="#FBE4DC" transform="translate(29,64)" data-index="77"></path>
<path d="M0 0 C3.63 0 7.26 0 11 0 C10.67 0.66 10.34 1.32 10 2 C6.76902047 2.86159454 4.77513726 3.30597523 1.625 2.0625 C1.08875 1.711875 0.5525 1.36125 0 1 C0 0.67 0 0.34 0 0 Z " fill="#DF4737" transform="translate(39,73)" data-index="78"></path>
<path d="M0 0 C1 3 1 3 0.0625 5.1875 C-0.4634375 6.0846875 -0.4634375 6.0846875 -1 7 C-2.65 6.67 -4.3 6.34 -6 6 C-4 4 -2 2 0 0 Z " fill="#282425" transform="translate(183,194)" data-index="79"></path>
<path d="M0 0 C4.62 0 9.24 0 14 0 C14 0.33 14 0.66 14 1 C9.05 1.66 4.1 2.32 -1 3 C-0.67 2.01 -0.34 1.02 0 0 Z " fill="#0E0E0E" transform="translate(130,73)" data-index="80"></path>
<path d="M0 0 C0.33 0.66 0.66 1.32 1 2 C0.0625 4.625 0.0625 4.625 -1 7 C-2.32 7 -3.64 7 -5 7 C-3.70700306 4.11562221 -2.34058637 2.12780579 0 0 Z " fill="#37282A" transform="translate(34,31)" data-index="81"></path>
<path d="M0 0 C3.7952131 1.49097658 5.61042731 3.75700849 8 7 C5 7 5 7 2.3125 4.625 C0 2 0 2 0 0 Z " fill="#2A1B1D" transform="translate(188,30)" data-index="82"></path>
<path d="M0 0 C2.875 -0.125 2.875 -0.125 6 0 C8 2 8 2 10 5 C6.05140217 4.4359146 3.29120954 3.2568294 0 1 C0 0.67 0 0.34 0 0 Z " fill="#100E0D" transform="translate(60,210)" data-index="83"></path>
<path d="M0 0 C0.66 0 1.32 0 2 0 C2.625 2.375 2.625 2.375 3 5 C2.34 5.66 1.68 6.32 1 7 C0.01 6.67 -0.98 6.34 -2 6 C-1.34 4.02 -0.68 2.04 0 0 Z " fill="#262224" transform="translate(217,142)" data-index="84"></path>
<path d="M0 0 C2.0625 0.4375 2.0625 0.4375 4 1 C3.67 2.32 3.34 3.64 3 5 C2.01 5 1.02 5 0 5 C-0.5625 3.0625 -0.5625 3.0625 -1 1 C-0.67 0.67 -0.34 0.34 0 0 Z " fill="#505A58" transform="translate(165,87)" data-index="85" style="opacity: 1;"></path>
<path d="M0 0 C0 0.66 0 1.32 0 2 C-0.66 2 -1.32 2 -2 2 C-2.33 2.99 -2.66 3.98 -3 5 C-4.98 5.33 -6.96 5.66 -9 6 C-3.15384615 0 -3.15384615 0 0 0 Z " fill="#ECDBDE" transform="translate(50,24)" data-index="86"></path>
<path d="M0 0 C0.66 0.33 1.32 0.66 2 1 C2 1.99 2 2.98 2 4 C0.02 4.99 0.02 4.99 -2 6 C-2.99 5.34 -3.98 4.68 -5 4 C-3.35 2.68 -1.7 1.36 0 0 Z " fill="#311B1D" transform="translate(46,21)" data-index="87"></path>
<path d="M0 0 C4.41889613 1.35021826 6.34345343 3.26115668 9 7 C5.66666667 5.33333333 2.33333333 3.66666667 -1 2 C-0.67 1.34 -0.34 0.68 0 0 Z " fill="#1C0B09" transform="translate(178,22)" data-index="88" style="opacity: 1;"></path>
<path d="M0 0 C-0.33 0.99 -0.66 1.98 -1 3 C-1.99 3 -2.98 3 -4 3 C-4 3.66 -4 4.32 -4 5 C-5.32 4.34 -6.64 3.68 -8 3 C-5.22569089 1.15046059 -3.35957737 0 0 0 Z " fill="#5C4F51" transform="translate(24,103)" data-index="89" style="opacity: 1;"></path>
<path d="M0 0 C1.32 0.33 2.64 0.66 4 1 C4 1.66 4 2.32 4 3 C4.66 3 5.32 3 6 3 C6.625 4.875 6.625 4.875 7 7 C6.34 7.66 5.68 8.32 5 9 C4.54625 8.071875 4.0925 7.14375 3.625 6.1875 C2.0578367 2.96078611 2.0578367 2.96078611 0 0 Z " fill="#CC5049" transform="translate(77,25)" data-index="90"></path>
<path d="M0 0 C4.75 0.75 4.75 0.75 7 3 C6.01 3.66 5.02 4.32 4 5 C2 3.625 2 3.625 0 2 C0 1.34 0 0.68 0 0 Z " fill="#371411" transform="translate(172,19)" data-index="91" style="opacity: 1;"></path>
<path d="M0 0 C1.32 0.66 2.64 1.32 4 2 C3.67 3.32 3.34 4.64 3 6 C1.68 5.01 0.36 4.02 -1 3 C-0.67 2.01 -0.34 1.02 0 0 Z " fill="#201F1D" transform="translate(32,187)" data-index="92"></path>
<path d="M0 0 C-1.20703125 1.51953125 -1.20703125 1.51953125 -3 3 C-5.26171875 3.07421875 -5.26171875 3.07421875 -7.6875 2.6875 C-8.89986328 2.50767578 -8.89986328 2.50767578 -10.13671875 2.32421875 C-10.75160156 2.21722656 -11.36648437 2.11023438 -12 2 C-12 1.67 -12 1.34 -12 1 C-7.95858806 0.36605303 -4.0934693 -0.12404452 0 0 Z " fill="#2E2E2E" transform="translate(86,113)" data-index="93"></path>
<path d="M0 0 C2.34058637 2.12780579 3.70700306 4.11562221 5 7 C4.34 7.66 3.68 8.32 3 9 C0.70620251 5.55930376 0 4.27709699 0 0 Z " fill="#272727" transform="translate(115,107)" data-index="94"></path>
<path d="M0 0 C0.33 0 0.66 0 1 0 C1.12375 1.093125 1.2475 2.18625 1.375 3.3125 C1.75464801 7.07381802 1.75464801 7.07381802 4 10 C2.68 10 1.36 10 0 10 C0 6.7 0 3.4 0 0 Z " fill="#504748" transform="translate(0,101)" data-index="95"></path>
<path d="M0 0 C1.65 0.33 3.3 0.66 5 1 C5 1.66 5 2.32 5 3 C2.1875 3.625 2.1875 3.625 -1 4 C-1.99 3.34 -2.98 2.68 -4 2 C-2.68 2 -1.36 2 0 2 C0 1.34 0 0.68 0 0 Z " fill="#242122" transform="translate(78,215)" data-index="96"></path>
<path d="M0 0 C0.99 0.33 1.98 0.66 3 1 C3 1.99 3 2.98 3 4 C2.34 4 1.68 4 1 4 C1 6.31 1 8.62 1 11 C0.67 11 0.34 11 0 11 C0 7.37 0 3.74 0 0 Z " fill="#413A3B" transform="translate(0,111)" data-index="97"></path>
<path d="M0 0 C2.4294516 3.6441774 2.16179575 5.71241272 2 10 C-0.46278801 7.53721199 -0.99771255 5.29323018 -2 2 C-1.34 2 -0.68 2 0 2 C0 1.34 0 0.68 0 0 Z " fill="#3F1414" transform="translate(215,67)" data-index="98"></path>
</svg>